<svg width="38" height="57" viewBox="0 0 38 57" fill="none" xmlns="http://www.w3.org/2000/svg">
  <path d="M19 28.5C19 24.8333 21.9624 21.8708 25.6291 21.8708C29.2958 21.8708 32.2583 24.8333 32.2583 28.5C32.2583 32.1667 29.2958 35.1292 25.6291 35.1292C21.9624 35.1292 19 32.1667 19 28.5Z" fill="#1ABCFE"/>
  <path d="M5.74167 42.75C5.74167 39.0833 8.70417 36.1208 12.3708 36.1208H19V42.75C19 46.4167 16.0375 49.3792 12.3708 49.3792C8.70417 49.3792 5.74167 46.4167 5.74167 42.75Z" fill="#0ACF83"/>
  <path d="M19 7.62085V21.8708H25.6292C29.2958 21.8708 32.2583 18.9083 32.2583 15.2417C32.2583 11.575 29.2958 8.61252 25.6292 8.61252H19V7.62085Z" fill="#FF7262"/>
  <path d="M5.74167 15.2417C5.74167 18.9083 8.70417 21.8708 12.3708 21.8708H19V8.61252H12.3708C8.70417 8.61252 5.74167 11.575 5.74167 15.2417Z" fill="#F24E1E"/>
  <path d="M5.74167 28.5C5.74167 32.1667 8.70417 35.1292 12.3708 35.1292H19V21.8708H12.3708C8.70417 21.8708 5.74167 24.8333 5.74167 28.5Z" fill="#A259FF"/>
</svg> 