<svg width="48" height="48" viewBox="0 0 48 48" fill="none" xmlns="http://www.w3.org/2000/svg">
  <path d="M9.89547 18.3964L24 42.7928L38.1045 18.3964H9.89547Z" fill="#FDB300"/>
  <path d="M24 42.7928L38.1045 18.3964L43.3714 15.8035L24 42.7928Z" fill="#EA6C00"/>
  <path d="M24 42.7928L9.89547 18.3964L4.62857 15.8035L24 42.7928Z" fill="#EA6C00"/>
  <path d="M9.89547 18.3964L4.62857 15.8035L14.1714 5.20715L9.89547 18.3964Z" fill="#FDAD00"/>
  <path d="M38.1045 18.3964L43.3714 15.8035L33.8286 5.20715L38.1045 18.3964Z" fill="#FDAD00"/>
  <path d="M33.8286 5.20715L24 42.7928L38.1045 18.3964L33.8286 5.20715Z" fill="#FEEEB7"/>
  <path d="M14.1714 5.20715L24 42.7928L9.89547 18.3964L14.1714 5.20715Z" fill="#FEEEB7"/>
  <path d="M14.1714 5.20715L33.8286 5.20715L24 42.7928L14.1714 5.20715Z" fill="#FDAD00"/>
  <path d="M14.1714 5.20715L33.8286 5.20715L24 8.85714L14.1714 5.20715Z" fill="#FEEEB7"/>
</svg> 